<svg width="30" height="30" viewBox="0 0 30 30" fill="none" xmlns="http://www.w3.org/2000/svg">
<circle cx="15" cy="15" r="14.5" stroke="white"/>
<path d="M20.3152 14.3144C20.4395 14.3144 20.5595 14.3594 20.6531 14.4411C20.7468 14.5227 20.8076 14.6355 20.8245 14.7586L20.8293 14.8285V19.6269C20.8296 20.196 20.612 20.7436 20.2213 21.1573C19.8307 21.5711 19.2965 21.8196 18.7283 21.852L18.6015 21.8554H11.0612C10.4922 21.8555 9.94466 21.6378 9.53104 21.247C9.11742 20.8562 8.86902 20.3219 8.8368 19.7537L8.83337 19.6276V14.8285C8.83341 14.6983 8.8829 14.5729 8.97182 14.4777C9.06075 14.3825 9.18249 14.3247 9.31244 14.3158C9.4424 14.3069 9.57088 14.3477 9.67193 14.4299C9.77297 14.5121 9.83905 14.6296 9.8568 14.7586L9.8616 14.8285V19.6269C9.86145 19.9282 9.97468 20.2185 10.1788 20.4402C10.3829 20.6618 10.6629 20.7985 10.9632 20.8231L11.0612 20.8272H18.6015C18.9027 20.8272 19.1928 20.7139 19.4143 20.5098C19.6358 20.3057 19.7724 20.0258 19.797 19.7256L19.8011 19.6276V14.8285C19.8011 14.6922 19.8553 14.5614 19.9517 14.465C20.0481 14.3686 20.1789 14.3144 20.3152 14.3144ZM11.0379 11.7206L14.4626 8.29589C14.5496 8.20882 14.665 8.15588 14.7878 8.1467C14.9106 8.13751 15.0326 8.1727 15.1316 8.24585L15.1892 8.2952L18.62 11.7206C18.7123 11.8122 18.7663 11.9353 18.7714 12.0652C18.7765 12.1951 18.7322 12.3221 18.6474 12.4207C18.5626 12.5192 18.4436 12.5819 18.3144 12.5963C18.1852 12.6106 18.0553 12.5755 17.951 12.4979L17.8934 12.4479L15.3414 9.9006L15.342 17.9167C15.342 18.0409 15.297 18.1609 15.2154 18.2545C15.1337 18.3482 15.0209 18.4091 14.8979 18.426L14.8279 18.4308C14.7037 18.4308 14.5837 18.3858 14.49 18.3041C14.3964 18.2225 14.3355 18.1097 14.3186 17.9866L14.3138 17.9167V9.89855L11.7645 12.4479C11.6775 12.5349 11.5621 12.5879 11.4393 12.5971C11.3165 12.6062 11.1945 12.5711 11.0955 12.4979L11.0379 12.4479C10.9506 12.3608 10.8976 12.2452 10.8884 12.1223C10.8792 11.9994 10.9145 11.8772 10.9878 11.7781L11.0379 11.7206L14.4626 8.29589L11.0379 11.7206Z" fill="white"/>
</svg>
