<svg width="26" height="25" viewBox="0 0 26 25" fill="none" xmlns="http://www.w3.org/2000/svg">
<g clip-path="url(#clip0_2_8652)">
<path d="M4.22911 22.0794H19.0822L18.3729 19.7825L20.0697 21.2388L21.6249 22.6325L24.4583 25.0002V2.57837C24.3874 1.18462 23.1874 0.000244141 21.6999 0.000244141L4.23432 0.00336914C2.74786 0.00336914 1.54161 1.18983 1.54161 2.58358V19.5002C1.54161 20.97 2.74578 22.0794 4.22911 22.0794ZM15.2166 5.92004L15.1822 5.93254L15.1947 5.92004H15.2166ZM7.26765 7.24191C9.17703 5.85233 10.9468 5.91899 10.9468 5.91899L11.0895 6.05962C8.75307 6.61691 7.6937 7.66066 7.6937 7.66066C7.6937 7.66066 7.97703 7.52212 8.47182 7.31066C11.6187 6.07316 15.0552 6.16274 18.2364 7.72941C18.2364 7.72941 17.1749 6.75337 14.9822 6.12837L15.176 5.93774C15.4791 5.93879 17.0833 5.99504 18.7999 7.25024C18.7999 7.25024 20.7208 10.5315 20.7208 14.5627C20.6572 14.4857 19.5291 16.2982 16.626 16.3607C16.626 16.3607 16.1343 15.8044 15.7843 15.319C17.4822 14.8315 18.1177 13.8565 18.1177 13.8565C17.5604 14.2075 17.052 14.4159 16.6395 14.6242C16.0052 14.9034 15.3697 15.0409 14.7354 15.1815C11.7312 15.669 10.0447 14.8534 8.45099 14.2065L7.9062 13.9294C7.9062 13.9294 8.54057 14.9044 10.1708 15.3919C9.74265 15.8805 9.3187 16.4357 9.3187 16.4357C6.41661 16.3669 5.35828 14.5544 5.35828 14.5544C5.35828 10.5169 7.26765 7.24191 7.26765 7.24191Z" fill="white"/>
<path d="M15.4041 13.3038C16.1448 13.3038 16.7479 12.6788 16.7479 11.908C16.7479 11.1423 16.1479 10.5173 15.4041 10.5173V10.5205C14.6666 10.5205 14.0625 11.1434 14.0604 11.9142C14.0604 12.6788 14.6635 13.3038 15.4041 13.3038Z" fill="white"/>
<path d="M10.5937 13.3038C11.3343 13.3038 11.9375 12.6788 11.9375 11.908C11.9375 11.1423 11.3385 10.5173 10.5979 10.5173L10.5937 10.5205C9.85309 10.5205 9.24997 11.1434 9.24997 11.9142C9.24997 12.6788 9.85309 13.3038 10.5937 13.3038Z" fill="white"/>
</g>
<defs>
<clipPath id="clip0_2_8652">
<rect width="25" height="25" fill="white" transform="translate(0.5 0.000244141)"/>
</clipPath>
</defs>
</svg>
