<svg width="26" height="25" viewBox="0 0 26 25" fill="none" xmlns="http://www.w3.org/2000/svg">
<g clip-path="url(#clip0_2_8638)">
<path d="M25.4756 7.35031C25.417 6.02197 25.2022 5.10874 24.8945 4.31742C24.577 3.47745 24.0887 2.72542 23.4488 2.10026C22.8236 1.46537 22.0667 0.972037 21.2364 0.659553C20.4405 0.351837 19.5321 0.137028 18.2037 0.0784607C16.8655 0.0149336 16.4406 0.000244141 13.0464 0.000244141C9.65218 0.000244141 9.22733 0.0149336 7.89403 0.0735006C6.56568 0.132068 5.65246 0.347068 4.86133 0.654593C4.02117 0.972037 3.26914 1.46041 2.64399 2.10026C2.0091 2.72542 1.51595 3.48241 1.20328 4.31265C0.895561 5.10874 0.680752 6.01701 0.622185 7.34535C0.558658 8.68362 0.543968 9.10847 0.543968 12.5027C0.543968 15.8969 0.558658 16.3218 0.617225 17.6551C0.675792 18.9834 0.890791 19.8966 1.19851 20.688C1.51595 21.5279 2.0091 22.2799 2.64399 22.9051C3.26914 23.54 4.02613 24.0333 4.85637 24.3458C5.65246 24.6535 6.56072 24.8683 7.88926 24.9269C9.22237 24.9857 9.64741 25.0002 13.0416 25.0002C16.4358 25.0002 16.8607 24.9857 18.194 24.9269C19.5223 24.8683 20.4356 24.6535 21.2267 24.3458C22.9068 23.6962 24.2352 22.3679 24.8847 20.688C25.1923 19.8919 25.4073 18.9834 25.4658 17.6551C25.5244 16.3218 25.5391 15.8969 25.5391 12.5027C25.5391 9.10847 25.5341 8.68362 25.4756 7.35031ZM23.2243 17.5574C23.1705 18.7783 22.9654 19.4376 22.7945 19.8772C22.3744 20.9663 21.51 21.8307 20.4209 22.2508C19.9813 22.4217 19.3173 22.6268 18.1011 22.6804C16.7825 22.7391 16.387 22.7536 13.0514 22.7536C9.71571 22.7536 9.31528 22.7391 8.00143 22.6804C6.78049 22.6268 6.12118 22.4217 5.68165 22.2508C5.13966 22.0504 4.64633 21.733 4.2459 21.3179C3.83078 20.9125 3.51333 20.4241 3.31302 19.8821C3.14209 19.4426 2.93701 18.7783 2.8834 17.5623C2.82465 16.2437 2.81015 15.8481 2.81015 12.5124C2.81015 9.17677 2.82465 8.77633 2.8834 7.46268C2.93701 6.24174 3.14209 5.58243 3.31302 5.14289C3.51333 4.60071 3.83078 4.10757 4.25086 3.70695C4.65606 3.29183 5.14443 2.97438 5.68661 2.77426C6.12614 2.60333 6.79041 2.39825 8.00639 2.34445C9.32501 2.28589 9.72067 2.2712 13.0561 2.2712C16.3967 2.2712 16.7922 2.28589 18.106 2.34445C19.327 2.39825 19.9863 2.60333 20.4258 2.77426C20.9678 2.97438 21.4612 3.29183 21.8616 3.70695C22.2767 4.11234 22.5941 4.60071 22.7945 5.14289C22.9654 5.58243 23.1705 6.24651 23.2243 7.46268C23.2828 8.78129 23.2975 9.17677 23.2975 12.5124C23.2975 15.8481 23.2828 16.2388 23.2243 17.5574Z" fill="white"/>
<path d="M13.0464 6.08057C9.50089 6.08057 6.62424 8.95703 6.62424 12.5027C6.62424 16.0484 9.50089 18.9249 13.0464 18.9249C16.5921 18.9249 19.4685 16.0484 19.4685 12.5027C19.4685 8.95703 16.5921 6.08057 13.0464 6.08057ZM13.0464 16.6686C10.7463 16.6686 8.8805 14.8031 8.8805 12.5027C8.8805 10.2024 10.7463 8.33683 13.0464 8.33683C15.3467 8.33683 17.2123 10.2024 17.2123 12.5027C17.2123 14.8031 15.3467 16.6686 13.0464 16.6686Z" fill="white"/>
<path d="M21.2219 5.82667C21.2219 6.65463 20.5506 7.32596 19.7224 7.32596C18.8945 7.32596 18.2231 6.65463 18.2231 5.82667C18.2231 4.99853 18.8945 4.32739 19.7224 4.32739C20.5506 4.32739 21.2219 4.99853 21.2219 5.82667Z" fill="white"/>
</g>
<defs>
<clipPath id="clip0_2_8638">
<rect width="25" height="25" fill="white" transform="translate(0.5 0.000244141)"/>
</clipPath>
</defs>
</svg>
