<svg width="26" height="25" viewBox="0 0 26 25" fill="none" xmlns="http://www.w3.org/2000/svg">
<g clip-path="url(#clip0_2_8644)">
<path d="M25.5 4.74868C24.5703 5.15649 23.5797 5.42681 22.5469 5.55806C23.6094 4.92368 24.4203 3.92681 24.8016 2.72524C23.8109 3.31587 22.7172 3.73306 21.5516 3.96587C20.6109 2.96431 19.2703 2.34399 17.8078 2.34399C14.9703 2.34399 12.6859 4.64712 12.6859 7.47056C12.6859 7.87681 12.7203 8.26743 12.8047 8.63931C8.54375 8.43149 4.77344 6.38931 2.24062 3.27837C1.79844 4.04556 1.53906 4.92368 1.53906 5.86899C1.53906 7.64399 2.45312 9.21743 3.81562 10.1284C2.99219 10.1127 2.18437 9.87368 1.5 9.49712C1.5 9.51274 1.5 9.53306 1.5 9.55337C1.5 12.044 3.27656 14.1127 5.60625 14.5893C5.18906 14.7034 4.73438 14.7581 4.2625 14.7581C3.93438 14.7581 3.60312 14.7393 3.29219 14.6706C3.95625 16.7002 5.84063 18.1924 8.08125 18.2409C6.3375 19.6049 4.12344 20.4268 1.72656 20.4268C1.30625 20.4268 0.903125 20.4081 0.5 20.3565C2.77031 21.8206 5.46094 22.6565 8.3625 22.6565C17.7937 22.6565 22.95 14.844 22.95 8.07212C22.95 7.84556 22.9422 7.62681 22.9312 7.40962C23.9484 6.68774 24.8031 5.78618 25.5 4.74868Z" fill="white"/>
</g>
<defs>
<clipPath id="clip0_2_8644">
<rect width="25" height="25" fill="white" transform="translate(0.5 0.000244141)"/>
</clipPath>
</defs>
</svg>
