<svg width="125" height="42" viewBox="0 0 125 42" fill="none" xmlns="http://www.w3.org/2000/svg">
<path d="M25 4.59375C12.0578 4.59375 1.5625 15.9278 1.5625 19.8398C1.5625 23.7517 12.0578 35.0858 25 35.0858C28.6055 35.0858 32.0195 34.2044 35.0719 32.8512L43.4219 37.4062V27.3564C46.5602 24.4689 48.4375 21.4928 48.4375 19.8398C48.4375 15.9278 37.9438 4.59375 25 4.59375ZM25 29.7832C18.5289 29.7832 13.2812 25.3312 13.2812 19.8404C13.2812 14.3482 18.5289 9.89756 25 9.89756C31.4727 9.89756 36.7188 14.3482 36.7188 19.8404C36.7188 25.3312 31.4727 29.7832 25 29.7832Z" fill="url(#paint0_linear_2_8515)"/>
<path d="M25 13.8744C24.2383 13.8744 23.507 13.98 22.8203 14.1697C23.2576 14.4795 23.6092 14.8656 23.8507 15.3011C24.0922 15.7367 24.2178 16.2112 24.2188 16.6917C24.2188 18.5213 22.4703 20.0057 20.3125 20.0057C19.4763 20.0037 18.6637 19.7728 17.9977 19.3482C17.9805 19.5116 17.9709 19.6756 17.9688 19.8397C17.9687 23.1341 21.1164 25.8057 25 25.8057C28.8836 25.8057 32.0312 23.1341 32.0312 19.8397C32.0312 16.5447 28.8836 13.8744 25 13.8744Z" fill="url(#paint1_linear_2_8515)"/>
<path d="M71.582 24.966L69.818 23.184C69.326 23.64 68.828 24 68.324 24.264C67.832 24.528 67.226 24.66 66.506 24.66C65.966 24.66 65.468 24.558 65.012 24.354C64.568 24.138 64.184 23.85 63.86 23.49C63.548 23.13 63.302 22.71 63.122 22.23C62.942 21.75 62.852 21.24 62.852 20.7V20.664C62.852 20.124 62.942 19.62 63.122 19.152C63.302 18.672 63.554 18.252 63.878 17.892C64.202 17.532 64.586 17.25 65.03 17.046C65.486 16.842 65.978 16.74 66.506 16.74C67.142 16.74 67.712 16.866 68.216 17.118C68.732 17.37 69.236 17.718 69.728 18.162L71.492 16.128C71.204 15.84 70.892 15.576 70.556 15.336C70.22 15.096 69.854 14.892 69.458 14.724C69.062 14.556 68.618 14.424 68.126 14.328C67.646 14.232 67.112 14.184 66.524 14.184C65.552 14.184 64.664 14.358 63.86 14.706C63.056 15.042 62.366 15.51 61.79 16.11C61.214 16.698 60.764 17.388 60.44 18.18C60.116 18.96 59.954 19.8 59.954 20.7V20.736C59.954 21.636 60.116 22.482 60.44 23.274C60.764 24.066 61.214 24.756 61.79 25.344C62.366 25.92 63.05 26.376 63.842 26.712C64.634 27.048 65.492 27.216 66.416 27.216C67.028 27.216 67.58 27.162 68.072 27.054C68.564 26.958 69.014 26.814 69.422 26.622C69.842 26.418 70.226 26.178 70.574 25.902C70.922 25.626 71.258 25.314 71.582 24.966ZM84.4571 27V14.4H81.6851V19.386H76.5731V14.4H73.8011V27H76.5731V21.942H81.6851V27H84.4571ZM100.311 20.7V20.664C100.311 19.764 100.143 18.924 99.8068 18.144C99.4828 17.352 99.0208 16.668 98.4208 16.092C97.8328 15.504 97.1308 15.042 96.3148 14.706C95.4988 14.358 94.6048 14.184 93.6328 14.184C92.6608 14.184 91.7608 14.358 90.9328 14.706C90.1168 15.042 89.4088 15.51 88.8088 16.11C88.2208 16.698 87.7588 17.388 87.4228 18.18C87.0868 18.96 86.9188 19.8 86.9188 20.7V20.736C86.9188 21.636 87.0808 22.482 87.4048 23.274C87.7408 24.054 88.2028 24.738 88.7908 25.326C89.3908 25.902 90.0988 26.364 90.9148 26.712C91.7308 27.048 92.6248 27.216 93.5968 27.216C94.5688 27.216 95.4628 27.048 96.2788 26.712C97.1068 26.364 97.8148 25.896 98.4028 25.308C99.0028 24.708 99.4708 24.018 99.8068 23.238C100.143 22.446 100.311 21.6 100.311 20.7ZM97.4128 20.736C97.4128 21.276 97.3168 21.786 97.1248 22.266C96.9448 22.734 96.6868 23.148 96.3508 23.508C96.0268 23.868 95.6308 24.15 95.1628 24.354C94.6948 24.558 94.1848 24.66 93.6328 24.66C93.0688 24.66 92.5528 24.558 92.0848 24.354C91.6288 24.138 91.2268 23.85 90.8788 23.49C90.5428 23.13 90.2788 22.71 90.0868 22.23C89.9068 21.75 89.8168 21.24 89.8168 20.7V20.664C89.8168 20.124 89.9068 19.62 90.0868 19.152C90.2788 18.672 90.5368 18.252 90.8608 17.892C91.1968 17.532 91.5928 17.25 92.0488 17.046C92.5168 16.842 93.0328 16.74 93.5968 16.74C94.1488 16.74 94.6588 16.848 95.1268 17.064C95.5948 17.268 95.9968 17.55 96.3328 17.91C96.6808 18.27 96.9448 18.69 97.1248 19.17C97.3168 19.65 97.4128 20.16 97.4128 20.7V20.736ZM105.668 27V14.4H102.896V27H105.668ZM117.925 23.274V23.238C117.925 22.686 117.835 22.212 117.655 21.816C117.487 21.42 117.229 21.078 116.881 20.79C116.545 20.49 116.125 20.238 115.621 20.034C115.129 19.818 114.565 19.626 113.929 19.458C113.389 19.314 112.939 19.188 112.579 19.08C112.231 18.972 111.955 18.858 111.751 18.738C111.547 18.618 111.403 18.486 111.319 18.342C111.247 18.186 111.211 18.006 111.211 17.802V17.766C111.211 17.454 111.343 17.196 111.607 16.992C111.883 16.776 112.291 16.668 112.831 16.668C113.371 16.668 113.911 16.782 114.451 17.01C114.991 17.226 115.543 17.526 116.107 17.91L117.547 15.822C116.899 15.306 116.185 14.91 115.405 14.634C114.637 14.358 113.791 14.22 112.867 14.22C112.219 14.22 111.625 14.31 111.085 14.49C110.545 14.67 110.077 14.928 109.681 15.264C109.297 15.6 108.997 16.002 108.781 16.47C108.565 16.926 108.457 17.442 108.457 18.018V18.054C108.457 18.678 108.553 19.2 108.745 19.62C108.949 20.04 109.231 20.394 109.591 20.682C109.951 20.958 110.389 21.192 110.905 21.384C111.421 21.576 111.997 21.75 112.633 21.906C113.161 22.038 113.587 22.164 113.911 22.284C114.247 22.404 114.505 22.524 114.685 22.644C114.877 22.764 115.003 22.896 115.063 23.04C115.135 23.172 115.171 23.328 115.171 23.508V23.544C115.171 23.916 115.009 24.21 114.685 24.426C114.373 24.63 113.929 24.732 113.353 24.732C112.633 24.732 111.967 24.594 111.355 24.318C110.755 24.042 110.167 23.67 109.591 23.202L107.953 25.164C108.709 25.848 109.549 26.358 110.473 26.694C111.397 27.018 112.339 27.18 113.299 27.18C113.983 27.18 114.607 27.096 115.171 26.928C115.735 26.748 116.221 26.496 116.629 26.172C117.037 25.836 117.355 25.428 117.583 24.948C117.811 24.456 117.925 23.898 117.925 23.274ZM123.228 27V14.4H120.456V27H123.228Z" fill="white"/>
<defs>
<linearGradient id="paint0_linear_2_8515" x1="1.5625" y1="21" x2="48.4375" y2="21" gradientUnits="userSpaceOnUse">
<stop stop-color="#0ACFFE"/>
<stop offset="1" stop-color="#495AFF"/>
</linearGradient>
<linearGradient id="paint1_linear_2_8515" x1="17.9688" y1="19.84" x2="32.0312" y2="19.84" gradientUnits="userSpaceOnUse">
<stop stop-color="#0ACFFE"/>
<stop offset="1" stop-color="#495AFF"/>
</linearGradient>
</defs>
</svg>
